<svg width="50" height="50" viewBox="0 0 50 50" fill="none" xmlns="http://www.w3.org/2000/svg">
<g clip-path="url(#clip0_255_345)">
<path d="M0 25C0 38.8071 11.1929 50 25 50C38.8071 50 50 38.8071 50 25C50 11.1929 38.8071 0 25 0C11.1929 0 0 11.1929 0 25Z" fill="#1BD741"/>
<path d="M9 42.0085L11.4491 33.3099C9.8742 30.6343 9.04498 27.5901 9.04498 24.4628C9.04498 14.8338 16.8788 7 26.5078 7C36.1368 7 43.9705 14.8338 43.9705 24.4628C43.9705 34.0919 36.1368 41.9256 26.5078 41.9256C23.5075 41.9256 20.5695 41.1576 17.9705 39.6993L9 42.0085ZM18.4291 36.5224L18.9637 36.8487C21.2297 38.2321 23.8385 38.9634 26.5078 38.9634C34.5034 38.9634 41.0082 32.4584 41.0082 24.4628C41.0082 16.4672 34.5034 9.96227 26.5078 9.96227C18.5122 9.96227 12.0073 16.4672 12.0073 24.4628C12.0073 27.2488 12.7991 29.9542 14.2969 32.2866L14.6568 32.8472L13.2465 37.8565L18.4291 36.5224Z" fill="white"/>
<path d="M21.6032 16.3353L20.47 16.2735C20.1141 16.2541 19.765 16.373 19.496 16.6067C18.9467 17.0838 18.0683 18.006 17.7985 19.2078C17.3962 20.9998 18.0179 23.1941 19.6271 25.3883C21.2363 27.5826 24.2351 31.0935 29.5379 32.5929C31.2467 33.0761 32.5909 32.7504 33.628 32.0869C34.4495 31.5615 35.0157 30.7181 35.2198 29.7647L35.4007 28.9197C35.4582 28.6511 35.3218 28.3786 35.0723 28.2636L31.2427 26.4984C30.9941 26.3839 30.6993 26.4563 30.5321 26.673L29.0287 28.6219C28.9152 28.7692 28.7207 28.8275 28.5452 28.7659C27.5156 28.4041 24.0669 26.9597 22.1746 23.3145C22.0925 23.1564 22.1129 22.9645 22.2293 22.8297L23.6661 21.1675C23.8129 20.9978 23.85 20.7592 23.7618 20.5529L22.111 16.6909C22.0232 16.4853 21.8262 16.3475 21.6032 16.3353Z" fill="white"/>
</g>
<defs>
<clipPath id="clip0_255_345">
<rect width="50" height="50" fill="white"/>
</clipPath>
</defs>
</svg>
